<?xml version="1.0" encoding="UTF-8" standalone="no"?>
<!-- Created with Inkscape (http://www.inkscape.org/) -->

<svg
   width="128"
   height="128"
   viewBox="0 0 33.866666 33.866666"
   version="1.1"
   id="svg1"
   inkscape:version="1.4.2 (f4327f4, 2025-05-13)"
   sodipodi:docname="favicon.svg"
   xmlns:inkscape="http://www.inkscape.org/namespaces/inkscape"
   xmlns:sodipodi="http://sodipodi.sourceforge.net/DTD/sodipodi-0.dtd"
   xmlns="http://www.w3.org/2000/svg"
   xmlns:svg="http://www.w3.org/2000/svg">
  <sodipodi:namedview
     id="namedview1"
     pagecolor="#ffffff"
     bordercolor="#000000"
     borderopacity="0.25"
     inkscape:showpageshadow="2"
     inkscape:pageopacity="0.0"
     inkscape:pagecheckerboard="0"
     inkscape:deskcolor="#d1d1d1"
     inkscape:document-units="mm"
     inkscape:zoom="0.68862935"
     inkscape:cx="196.76768"
     inkscape:cy="296.96672"
     inkscape:window-width="1920"
     inkscape:window-height="991"
     inkscape:window-x="-9"
     inkscape:window-y="-9"
     inkscape:window-maximized="1"
     inkscape:current-layer="layer1" />
  <defs
     id="defs1" />
  <g
     inkscape:label="Capa 1"
     inkscape:groupmode="layer"
     id="layer1"
     transform="translate(-53.181243,-70.114581)">
    <g
       id="g22"
       transform="matrix(0.27741344,0,0,0.24112416,-11.90943,56.335949)"
       inkscape:export-filename="logo-setosa-32x32.png"
       inkscape:export-xdpi="5.7869778"
       inkscape:export-ydpi="5.7869778">
      <path
         id="path20"
         style="fill:#fa4f3c;fill-opacity:1;stroke:none;stroke-width:8.42222;stroke-linecap:round;stroke-linejoin:round;stroke-dasharray:none"
         d="m 295.51371,65.367464 c -2.59514,0.06699 -5.14654,1.589884 -6.93239,4.368209 L 248.3724,132.29103 c -2.02339,3.14788 0.94216,7.13135 4.41472,7.13135 h 8.05791 l 0.21187,-0.15348 c 0,0 7.27091,-8.97103 34.95859,-8.97103 29.12158,0 33.89561,8.8868 33.89561,8.8868 l 0.35088,0.23771 h 8.51266 c 2.13752,0 7.2034,-2.47247 3.21686,-8.66511 L 302.70862,69.735673 c -1.96106,-3.046289 -4.59976,-4.435199 -7.19491,-4.368209 z m 0.6749,71.304176 c 34.32405,0 -35.60299,0 0,0 z"
         sodipodi:nodetypes="sccsccsccscssss" />
      <path
         style="fill:#fb923c;fill-opacity:1;stroke:none;stroke-width:6.00001;stroke-linecap:round;stroke-linejoin:round;stroke-dasharray:none"
         d="m 288.49246,82.523471 c 0.54368,-0.638046 2.34573,-0.985818 2.34573,-0.985818 l 9.85754,0.02666 c 0,0 1.29397,0.46079 1.70811,0.967401 0.64558,0.789732 0.94843,2.909403 0.94843,2.909403 l -2.36061,25.160663 c 0,0 -0.33607,1.66881 -0.97669,2.26989 -0.46249,0.43394 -1.8265,0.7771 -1.8265,0.7771 l -5.52416,-0.10714 c 0,0 -0.87661,-0.18802 -1.19228,-0.47715 -0.64987,-0.59522 -1.19356,-2.35901 -1.19356,-2.35901 l -2.41098,-25.059293 c 0,0 -0.0931,-2.279961 0.62497,-3.122706 z"
         id="path11"
         sodipodi:nodetypes="sccsccsccsccs" />
      <circle
         style="fill:#fb923c;fill-opacity:1;stroke:none;stroke-width:7.21251;stroke-linecap:round;stroke-linejoin:round;stroke-dasharray:none"
         id="path12"
         cx="295.60086"
         cy="122.96203"
         r="6.9279184" />
      <path
         id="path13"
         style="fill:#7a695b;fill-opacity:1;stroke:none;stroke-width:8.42222;stroke-linecap:round;stroke-linejoin:round;stroke-dasharray:none"
         d="m 294.98817,57.16228 v 5.17e-4 c -5.21607,0.233689 -10.26192,2.61315 -12.6845,6.40116 L 235.69308,136.4453 c -2.84844,4.4539 0.33709,11.33289 6.12365,11.33419 l 7.49825,0.002 -0.72657,0.52658 c -10.21633,1.48455 -8.52395,12.7743 -2.86494,15.59957 -0.44088,0.90621 -0.91295,1.78156 -0.95085,3.09076 l 0.10181,24.21351 c 0,0 0.37954,2.38356 1.90169,3.90571 2.11027,2.11027 4.31291,2.37711 4.31291,2.37711 h 16.19902 c 3.15705,0 5.13322,-2.46513 5.9433,-4.55062 h 44.89545 c 0.48777,1.8204 3.15649,4.65243 6.01101,4.65243 h 15.31586 c 2.86182,0 7.14892,-3.32358 7.14892,-7.14892 v -22.43067 c -0.20012,-1.49557 -0.37583,-3.00963 -1.10381,-4.10931 4.71726,-1.68253 8.43155,-13.47265 -2.2071,-15.65538 l -0.66405,-0.4501 6.31383,0.002 c 8.19017,0 9.0287,-8.05341 6.53139,-11.9109 L 308.69482,63.63527 c -3.10409,-4.794777 -8.49059,-6.706679 -13.70665,-6.47299 z m 0.52554,8.205184 c 2.59515,-0.06699 5.23385,1.32192 7.19491,4.368209 l 39.28288,61.021597 c 3.98654,6.19264 -1.07934,8.66511 -3.21686,8.66511 h -8.51266 l -0.35088,-0.23771 c 0,0 -4.77403,-8.8868 -33.89561,-8.8868 -27.68768,0 -34.95859,8.97103 -34.95859,8.97103 l -0.21187,0.15348 h -8.05791 c -3.47256,0 -6.43811,-3.98347 -4.41472,-7.13135 l 40.20892,-62.555357 c 1.78585,-2.778325 4.33725,-4.301218 6.93239,-4.368209 z m 0.6749,71.304176 c 34.32405,0 31.97037,13.28535 34.29971,17.31988 1.09187,-1.32772 3.0649,-2.4536 5.13768,-2.4536 l 6.15931,0.0481 c 0.76964,0 3.27318,1.00427 3.27318,3.14192 0,4.23106 -6.17895,5.22656 -6.17895,5.22656 l -4.62245,-0.0842 c 2.27186,2.27186 5.36711,4.82675 5.36711,7.76851 v 21.15582 c 0,0.91707 -1.45476,2.16421 -2.16473,2.16421 h -10.10635 c -1.03429,0 -2.78743,-2.07764 -2.78743,-2.81792 l -0.0842,-1.75596 -57.74894,-0.0124 c 0,0.59317 -0.002,1.1443 -0.002,1.6707 0,1.66706 -1.73525,2.98225 -2.63447,2.98225 h -9.64489 c -1.23475,0 -2.78484,-1.53076 -2.78484,-2.51302 v -20.98787 c 0,-2.68321 3.30119,-5.43593 5.48907,-7.62382 h -4.73046 c -0.55796,0 -6.78522,-0.58882 -6.1898,-5.92574 0.23389,-2.09645 3.12105,-2.47944 3.93826,-2.47944 h 5.54126 c 2.00163,0 4.008,1.36865 4.78162,2.53008 2.90012,-5.02315 0.0894,-17.35398 35.6924,-17.35398 z" />
      <path
         style="fill:#7a695b;fill-opacity:1;stroke:none;stroke-width:8.42222;stroke-linecap:round;stroke-linejoin:round;stroke-dasharray:none"
         d="m 264.86982,157.96135 h 61.25466 c -3.8392,-14.32811 -9.04977,-16.63705 -31.66801,-16.63705 -19.48906,0 -26.70206,2.4108 -29.58665,16.63705 z"
         id="path15"
         sodipodi:nodetypes="ccsc" />
      <path
         style="fill:#7a695b;fill-opacity:1;stroke:none;stroke-width:8.42222;stroke-linecap:round;stroke-linejoin:round;stroke-dasharray:none"
         d="m 271.32948,176.01957 h -8.40476 c -2.86354,0 -5.32359,-2.74442 -5.32359,-5.92901 0.18253,-3.19789 2.65832,-5.34537 5.71982,-5.34537 2.8055,0 9.49232,4.64188 10.72145,5.66269 1.4074,1.16887 1.55371,5.61169 -2.71292,5.61169 z"
         id="path16"
         sodipodi:nodetypes="scscss" />
      <path
         style="fill:#7a695b;fill-opacity:1;stroke:none;stroke-width:8.42222;stroke-linecap:round;stroke-linejoin:round;stroke-dasharray:none"
         d="m 320.08647,176.01957 h 8.40475 c 2.86354,0 5.3236,-2.74442 5.3236,-5.92901 -0.18253,-3.19789 -2.65833,-5.34537 -5.71983,-5.34537 -2.80549,0 -9.49232,4.64188 -10.72145,5.66269 -1.4074,1.16887 -1.55371,5.61169 2.71293,5.61169 z"
         id="path17"
         sodipodi:nodetypes="scscss" />
      <path
         id="path18"
         style="fill:#000000;fill-opacity:0.07;stroke:none;stroke-width:8.42222;stroke-linecap:round;stroke-linejoin:round;stroke-dasharray:none"
         d="m 310.45854,142.19534 c -7.9968,5.97695 -15.93669,12.13242 -24.67912,15.76596 h 40.34483 c -2.69563,-10.06025 -6.06703,-14.19526 -15.66571,-15.76596 z" />
      <path
         id="path21"
         style="fill:#000000;fill-opacity:0.0815789;stroke:none;stroke-width:8.42222;stroke-linecap:round;stroke-linejoin:round;stroke-dasharray:none"
         d="m 333.71707,117.90431 c -9.74529,5.91045 -17.63165,9.47269 -25.49457,13.00541 18.32211,2.00877 21.6886,8.27495 21.6886,8.27495 l 0.35088,0.23771 h 8.51266 c 2.13752,0 7.2034,-2.47247 3.21686,-8.66511 z" />
    </g>
  </g>
</svg>
